<svg height="25" viewBox="-281.85 -2.67 1024 1024" width="24" xmlns="http://www.w3.org/2000/svg"><path d="M504.682 259.996a3.666 3.666 0 11-7.333 0v-57.999a3.667 3.667 0 017.333 0v57.999z" fill="#696971"/><path d="M502.35 73v872.66c0 37.56-30.45 68-68 68H75.68c-37.55 0-68-30.44-68-68V343.81a3.658 3.658 0 01-2.51-3.48v-58c0-1.63 1.05-3 2.51-3.49v-15.36A3.658 3.658 0 015.17 260v-58c0-1.63 1.05-3 2.51-3.49v-38.45a3.49 3.49 0 01-2.68-3.4v-30c0-.97.39-1.84 1.03-2.47.45-.45 1.01-.78 1.65-.93V73c0-37.56 30.45-68 68-68h358.67c37.55 0 68 30.44 68 68z" fill="none" stroke="#000" stroke-miterlimit="10" stroke-width="10"/><path fill="none" stroke="#000" stroke-miterlimit="10" stroke-width="10" d="M36.015 120.496h438v777h-438z"/><circle cx="255.015" cy="37.746" fill="none" r="5" stroke="#000" stroke-miterlimit="10" stroke-width="10"/><circle cx="186.167" cy="65.746" fill="none" r="7.5" stroke="#000" stroke-miterlimit="10" stroke-width="10"/><path d="M289.265 65.996a4.25 4.25 0 01-4.25 4.25h-60a4.25 4.25 0 01-4.25-4.25h0a4.25 4.25 0 014.25-4.25h60a4.25 4.25 0 014.25 4.25h0z" fill="none" stroke="#000" stroke-miterlimit="10" stroke-width="10"/><ellipse cx="255.015" cy="952.496" fill="none" rx="31.5" ry="32" stroke="#000" stroke-miterlimit="10" stroke-width="10"/></svg>