<svg width="366" height="102" fill="none" xmlns="http://www.w3.org/2000/svg"><path fill-rule="evenodd" clip-rule="evenodd" d="M352.717 42.06c-.685-1.405-1.656-2.352-2.916-2.841-1.258-.474-3.393-.71-6.421-.71l-2.517.047v48.187l6.262 7.071h-22.37l1.085 1.246h23.85l-7.424-8.696-.192-46.467c.782-.094 1.53-.141 2.248-.141 3.203 0 6.005.773 8.395 2.304zm12.459-7.198l-.923-.931-.239.284c-2.151 2.494-4.366 6.93-6.676 13.306l-.144.41 1.037.884.174-.457c2.375-6.298 4.637-10.796 6.771-13.495zm-2.946-2.92c-.272.521-.462.885-.559 1.059l-3.171 5.555c-1.083 1.973-2.102 4.435-3.041 7.402l-.081.221-.479-.316-.127-.599c-.907-3.52-2.199-5.95-3.856-7.308-1.672-1.357-4.205-2.036-7.631-2.036a46.76 46.76 0 00-4.206.19l-.559-.001v50.129l5.514 5.035H322.7l6.532-5.414V39.85l-3.313-.047c-3.203 0-5.481.632-6.836 1.878-1.352 1.247-2.15 3.441-2.406 6.582h-1.21c.336-3.598 1.275-6.124 2.82-7.529 1.545-1.421 4.079-2.13 7.632-2.13l2.805.047h.508v-2.258a38.298 38.298 0 00-4.524-.284c-4.015 0-6.915.805-8.684 2.431-1.768 1.61-2.757 4.34-2.947 8.192h-.559c-1.338-4.278-3.408-9.06-6.198-14.332l-.285-.457h56.195zM288.303 64.03c9.114-3.66 13.669-9.043 13.669-16.13 0-4.388-1.577-7.986-4.715-10.827 2.468 3.582 3.695 6.88 3.695 9.896 0 7.34-4.763 12.784-14.292 16.368l.288.788C292.079 77.13 299.122 86.6 308.09 92.52c-6.723 1.815-13.065 4.656-19.006 8.507l.938.742.415-.284a74.25 74.25 0 0120.075-8.602c-4.763-3.015-8.699-6.424-11.805-10.212-4.988-6.077-8.445-12.296-10.405-18.64h.001zm-22.546-27.747v24.922c.91 0 1.753-.079 2.566-.22v-22.76c1.705-.458 3.76-.695 6.165-.695 6.055 0 10.182 1.973 12.364 5.92-2.31-1.848-4.333-3.126-6.07-3.82-1.737-.696-3.823-1.042-6.261-1.042-1.897 0-3.554.19-4.987.568v21.828l.508-.094c6.136-1.122 10.692-2.857 13.656-5.256 2.979-2.384 4.461-5.492 4.461-9.313 0-3.425-1.339-6.25-4.016-8.49-2.677-2.227-6.054-3.347-10.132-3.347-3.266 0-6.008.6-8.254 1.799zm-14.099 1.2c7.377-4.214 15.31-6.33 23.803-6.33 6.595 0 12.044 1.42 16.314 4.262 4.287 2.825 6.421 6.44 6.421 10.812 0 3.583-1.403 6.74-4.206 9.502-2.804 2.761-6.627 4.75-11.487 5.982 2.151 5.871 5.066 11.569 8.762 17.125 3.681 5.54 7.377 9.801 11.088 12.752l-.7.237c-4.635 1.578-9.193 3.788-13.638 6.66l-.701.459-.222-1.484c-1.993-11.933-4.781-22.034-8.365-30.336l-.192-.458c-2.135.995-5.018 1.769-8.635 2.352l-.366.047v17.299l8.221 8.696h-24.137l-.749-1.246h22.225l-6.771-7.118v-18.64l.988-.143c3.538-.363 6.516-1.057 8.905-2.083a7.37 7.37 0 01-.334-.694l-.461-1.342c-.033-.095-.114-.268-.24-.552-1.927.552-5.56 1.152-10.914 1.799l-.51.094v20.629l5.321 5.51h-20.633l6.071-5.51v-15.53l-.367.046c-1.816.395-3.44.837-4.907 1.342l-.382.127-.415-.915c1.371-.521 2.438-.884 3.22-1.074l2.484-.6.367-.095v-2.399c-1.831 0-4.125.395-6.867 1.2l-.51.19c.065-.427.368-1.437.941-3.015.063-.11.27-.805.652-2.068.033-.095.08-.236.128-.425 1.402.094 2.501.141 3.282.141.829 0 1.61-.047 2.327-.141V39.803a28.11 28.11 0 00-4.431-2.179l-.38-.141zm-17.512 17.204l-1.45-.884c.687 2.935 2.025 6.219 4.016 9.849l.557 1.025c-2.039-.268-3.919-.409-5.591-.409-1.371 0-2.582.141-3.649.41l8.316 21.78 8.398 7.356h-24.777l.877 1.246h27.038l-10.42-9.106-7.792-20.487c.494-.032.812-.047.942-.047.763 0 2.023.079 3.727.236l3.776.316c.095 0 .493.047 1.163.142-2.725-4.846-4.444-8.65-5.131-11.427zm-27.435-13.274l-7.425 19.43c2.358 2.398 4.398 4.782 6.119 7.118l2.134 2.967c.032.031.191.22.478.6.271-.285.431-.457.462-.521l.654-.773a6.49 6.49 0 01.51-.6 48.885 48.885 0 00-7.6-9.028l5.974-15.626-1.306-3.567zm2.088 5.366l-5.132 13.417c.288.3.43.489.462.552l1.928 2.13c1.02 1.105 2.327 2.826 3.92 5.178l.462.694c1.338-1.674 2.932-3.315 4.764-4.956l-6.404-17.015zm11.534-14.836l-4.86 5.46 7.664 20.157 1.865-1.027-6.915-18.213 4.955-5.636 1.21.506-4.715 5.414 6.532 17.235c.382-.268.589-.442.652-.505l1.547-1.294c.94-.742 1.529-1.263 1.768-1.579.812 3.52 2.055 6.66 3.744 9.44a31.241 31.241 0 00-1.96-.096c-2.963 0-5.129.458-6.5 1.389l8.46 22.712 6.994 5.367H217.21l6.437-5.367-5.177-13.51c-3.427 3.425-6.055 6.676-7.887 9.77l-1.084-.284c1.849-3.015 4.573-6.393 8.221-10.133l.367-.459-.877-2.036c-3.712 3.063-6.772 6.599-9.193 10.64l-.844-1.342c-1.624-2.558-3.696-5.477-6.213-8.745l-.463-.553c-2.406 5.272-3.601 9.566-3.601 12.865 0 1.94.334 3.582 1.004 4.924.669 1.341 2.278 3.583 4.828 6.723.223.284.573.711 1.035 1.295h-25.206l-.94-1.247h23.772l-.796-.98c-2.056-2.46-3.409-4.37-4.047-5.744-.638-1.373-.956-2.983-.956-4.845 0-3.142 1.29-7.829 3.872-14.047l-2.039-2.131c-.415.978-.926 2.43-1.547 4.34l-1.546 4.72c-.844 2.524-1.257 4.624-1.257 6.297 0 1.72.302 3.156.891 4.293.591 1.152 1.833 2.7 3.728 4.672.192.19.462.49.844.884h-23.341c4.447-2.289 7.966-5.351 10.58-9.202 2.598-3.851 5.162-9.802 7.711-17.851l.191-.648c-1.64-1.388-4.03-2.24-7.136-2.54 1.705-2.542 3.025-5.177 3.966-7.924.43.41.701.648.796.743l2.104 1.94a23.366 23.366 0 002.564 2.084l.83-2.036-.559-.458a93.993 93.993 0 00-3.918-3.283l-.415-.331.749-1.01a35.947 35.947 0 014.765 3.74l6.34-17.283-4.955-5.271h21.525zm-50.649 3.52l-.701-.932-9.242 5.461-13.862 17.741 16.523 26.974 9.48 9.107h-26.847l.844 1.246h28.982l-11.392-10.953-16.108-26.374 13.224-16.967 9.099-5.303zm-1.689-3.52l-10.262 6.66-14.944 18.814 17.096 27.795 8.11 6.061h-24.074l5.927-5.683-10.644-17.219-13.161 16.841 7.648 9.848h-25.54l-.685-1.246h23.756l-6.676-8.602 14.005-17.993-1.307-2.036-15.264 19.145 5.689 6.945h-21.43l10.93-6.945 18.067-22.65-14.561-23.548-8.875-6.187h24.649l-6.119 5.271 10.403 16.826 1.689-2.131-8.731-13.78 5.177-4.892.847.789-4.479 4.104 7.935 12.864 10.133-12.864-5.846-6.187h20.537zm-92.012 2.494l-.653-.963-5.274 5.082v34.676c0 4.2.494 7.292 1.497 9.297.988 2.005 2.805 3.535 5.418 4.577l-.096-.41c-1.992-1.674-3.346-3.094-4.063-4.262l-1.45-5.871.048-3.188V39.014l4.573-4.578zm31.515.647l-.686-.963-6.962 5.635v29.593c0 8.76-.75 14.584-2.247 17.473-2.788 5.366-8.492 8.05-17.08 8.05-6.006 0-10.913-1.106-14.753-3.33l-1.625-.916-.382-.19c3.87 3.788 9.622 5.682 17.27 5.682 8.875 0 14.834-2.904 17.877-8.696 1.497-2.857 2.246-8.997 2.246-18.404l.001-28.71 6.341-5.224zm-1.593-3.141l-8.35 6.613v29.862c0 5.493-.175 9.439-.54 11.838-.352 2.399-1.07 4.372-2.12 5.919-2.678 3.946-7.871 5.919-15.599 5.919-8.14 0-13.845-1.973-17.079-5.92-2.58-3.109-3.872-9.075-3.872-17.897v-30.7l-6.34-5.634h22.018l-6.341 6.155v30.226l.095 7.118c0 4.593.957 7.86 2.9 9.786 1.928 1.925 5.178 2.889 9.751 2.889 5.035 0 8.508-1.469 10.404-4.389 1.53-2.383 2.294-7.465 2.294-15.262l.176-29.91-7.281-6.613h19.884zm-52.594 58.95l-.382-.457a67.788 67.788 0 01-7.457-12.626l-.335-.79-1.497-.552.191.505c2.055 5.13 4.796 9.77 8.221 13.921l-1.354 2.92H1.307L2.47 95.06h48.738l2.103-4.166zM0 31.944h22.322l-6.596 6.329v49.433h.382l1.689.142h.414V38.745l5.035-5.05.653 1.026-4.524 4.577v48.55c1.401.126 2.74.19 4.015.19 4.955 0 8.683-1.09 11.231-3.268 2.534-2.163 4.239-5.745 5.1-10.748 2.93 8.412 5.927 14.173 9.017 17.251H0l6.437-5.224V37.813L0 31.943zm180.123-7.021c-1.077-6.9-11.591-9.624-8.491-1.905-9.557.043-2.86-18.196 7.522-3.44-8.328-11.321-2.265-15.56.975-19.578 3.294 3.898 9.27 7.782 1.069 19.68 12.089-15.147 17.563 3.484 7.723 3.485 4.048-8.037-7.726-5.04-8.798 1.758z" fill="#666"/></svg>